<svg version="1.1" xmlns="http://www.w3.org/2000/svg" viewBox="-1169.914227462655 -2351.1739157521392 4784.970350920777 4785.400621543653"><desc>Created with Snap</desc><defs></defs><g><g transform="matrix(10.7874,0,0,10.7874,-934.9055,-2115.9501)">
<g id="gSkv0ju8ih1bp">
	<g>
		<path fill="#e0aaff" d="M82.06866,46.80432c0.44048,0.09728,1.81986-0.49205,3.98136-1.64856
			c2.20975-1.09238,5.2579-2.67703,8.94401-4.68989c7.51703-3.80428,17.93356-8.86331,30.43024-13.1756
			c12.47414-4.32378,26.96772-7.99401,42.01273-9.6109c1.87662-0.19844,3.75923-0.39779,5.64507-0.59735
			c1.88943-0.14902,3.78758-0.23685,5.67796-0.35662c3.77602-0.30159,7.57491-0.23849,11.32912-0.3126
			c1.87773-0.03781,3.75569,0.09517,5.61867,0.13513c1.86383,0.08778,3.71739,0.06724,5.55797,0.24432
			c3.67995,0.31842,7.31462,0.49835,10.86098,1.02225c-24.46938,0.31527-45.84834,5.87472-62.983,13.23676
			c-8.58604,3.71305-16.09875,8.00225-22.67894,12.26207c-3.22648,2.26534-6.32965,4.31355-9.06628,6.60401
			c-1.37437,1.11085-2.71513,2.19456-4.02266,3.25142c-1.23869,1.13261-2.44566,2.23617-3.62017,3.31003
			c-9.26917,8.664-14.87678,16.66336-17.84011,22.57063c-2.84336,6.059-3.17654,9.94636-1.23619,11.60844
			c12.396-15.45393,28.45402-29.09509,47.43205-39.08565c18.9328-10.01645,40.72635-16.36285,63.47681-17.78591
			c22.73022-1.48197,46.37234,1.87225,68.61374,10.25464c11.11929,4.17942,21.8819,9.59661,32.00284,16.15094
			c10.12143,6.55412,19.58212,14.25672,28.18671,22.87717c17.22528,17.23357,30.80743,38.36257,39.42282,61.36801
			c8.65921,22.994,12.38708,47.78455,11.09464,72.0957c-1.24237,24.32739-7.58545,48.12822-18.00375,69.4503
			c-10.38284,21.37689-24.93945,40.10056-41.69687,55.30795c-8.38907,7.61682-17.36337,14.36597-26.70444,20.18491
			c-9.34406,5.82074-19.09393,10.61557-28.94733,14.54181c-9.86093,3.9166-19.85266,6.91727-29.78415,9.08392
			c-9.94624,2.10358-19.82362,3.32999-29.4743,3.85846c-9.65497,0.57462-19.08638,0.22992-28.16501-0.64651
			c-1.13516-0.11664-2.26575-0.23282-3.39136-0.34888c-1.12697-0.11121-2.24884-0.22696-3.3564-0.41266
			c-2.22144-0.33698-4.42419-0.67114-6.60777-1.00272c-2.18347-0.34042-4.3194-0.83633-6.45241-1.24716
			c-1.0649-0.21622-2.12482-0.43161-3.18013-0.64587c-1.05194-0.22882-2.08591-0.51355-3.12253-0.76712
			c-2.06961-0.52557-4.12024-1.04596-6.15103-1.56174c-2.00519-0.61169-3.99089-1.21768-5.95718-1.81741
			c-0.98251-0.30374-1.9601-0.60596-2.93306-0.90634c-0.95847-0.3439-1.91188-0.68619-2.86023-1.02689
			c-1.89658-0.68607-3.77393-1.36462-5.63077-2.03653c-7.32208-2.95859-14.25258-6.03729-20.57684-9.50757
			c-12.72123-6.81235-23.36193-14.39328-32.06516-21.69196c-2.17656-1.82785-4.29309-3.57358-6.18667-5.40707
			c-1.91791-1.80673-3.80501-3.49908-5.5228-5.21066c-3.36911-3.48929-6.50893-6.61322-9.06343-9.67181
			c-1.30597-1.50275-2.53819-2.92072-3.69509-4.25165c-1.09204-1.3862-2.11286-2.68185-3.06096-3.88477
			c-0.945-1.20602-1.81723-2.31924-2.61518-3.33749c-0.77715-1.03403-1.43549-2.00656-2.04808-2.85944
			c-2.41859-3.43576-3.70066-5.25714-3.74636-5.32217c-5.46113-8.26123-10.29185-16.883-14.46608-25.78323
			c-4.16677-8.90799-7.4951-18.15073-10.23626-27.52586c-2.76757-9.37598-4.63573-18.97604-5.88218-28.62491
			c-0.68911-4.82196-0.98716-9.67961-1.33614-14.5295l-0.20802-7.29013c-0.05188-1.21474-0.04251-2.42969-0.00855-3.6449
			l0.07005-3.64503c0.42722-19.44357,3.96095-38.7907,10.20834-57.30516c3.20473-9.23248,7.07828-18.25121,11.59234-26.98227
			c4.59464-8.69124,9.87891-17.03811,15.72216-25.0221c0.69774-0.90845,2.08265-2.71173,3.77679-4.91772
			c0.42325-0.55247,0.86528-1.12967,1.32112-1.72482c0.48035-0.5741,0.97521-1.16545,1.47757-1.76587
			c1.00593-1.20171,2.04324-2.44109,3.06269-3.65897c1.98835-2.48425,4.12689-4.67604,5.64749-6.44722
			c1.54144-1.75171,2.56507-2.98889,2.63037-3.26817l-0.00708,0.00397c-17.48207,17.50659-31.66323,38.43564-41.30956,61.28998
			c-9.67891,22.84109-14.85973,47.53831-15.24643,72.3043c-0.40845,24.76634,3.97346,49.61223,12.90819,72.75127
			c8.90224,23.14932,22.40002,44.53232,39.34857,62.56775c16.89465,18.05338,37.32344,32.93442,59.85665,43.33493
			c22.51597,10.43509,47.04972,16.40039,71.79456,17.58765c24.74609,1.20511,49.72084-2.37305,73.14037-10.55167
			c23.42676-8.14722,45.24942-20.94238,63.81384-37.33554c18.55795-16.34717,34.06335-36.25995,45.19333-58.44409
			c11.15619-22.16071,17.92752-46.4855,19.90485-71.17728c1.99942-24.6918-0.77719-49.75745-8.18207-73.42302
			c-7.37558-23.67151-19.42508-45.90224-35.18915-65.02438c-15.71448-19.13124-35.16812-35.17571-56.96564-47.04198
			c-21.789-11.86739-45.88651-19.42662-70.50345-22.19782c-24.61627-2.79403-49.7552-0.82467-73.64371,5.80912
			c-23.89274,6.60539-46.50471,17.92143-66.11643,33.08085L82.06866,46.80432z" style=""></path>
	</g>
</g>


<desc>Created with Snap</desc><defs></defs></g><g><g transform="matrix(1.024,0,0,-1.024,0,0)"><path d="M154 513Q154 475 173 446Q192 418 219 397Q246 377 294 348Q344 317 373 294Q403 272 424 239Q445 206 445 161Q445 112 419 72Q394 33 346 10Q299 -12 236 -12Q196 -12 157 -3Q118 7 89 25Q84 28 82 32Q80 36 80 44L70 187Q69 191 74 192Q80 193 81 189Q105 113 148 60Q191 7 260 7Q307 7 338 32Q370 58 370 116Q370 160 350 193Q330 226 301 248Q273 271 225 300Q178 330 150 351Q123 373 104 404Q85 436 85 478Q85 529 112 565Q140 601 184 618Q229 636 278 636Q345 636 399 613Q414 607 414 595L419 470Q419 466 414 465Q409 464 408 468Q397 522 361 570Q325 619 259 619Q209 619 181 589Q154 559 154 513ZM732 -13Q673 -13 628 15Q583 44 558 92Q534 141 534 198Q534 263 566 308Q598 354 648 376Q698 399 750 399Q809 399 854 370Q899 341 923 293Q947 246 947 193Q947 132 917 85Q888 38 839 12Q790 -13 732 -13ZM761 6Q811 6 838 45Q865 84 865 162Q865 227 845 276Q826 326 792 352Q758 379 716 379Q667 379 640 341Q614 304 614 231Q614 168 633 116Q652 65 685 35Q719 6 761 6ZM1213 -12Q1148 -12 1103 16Q1059 45 1037 90Q1016 135 1016 185Q1016 249 1049 296Q1082 344 1134 369Q1186 395 1240 395Q1285 395 1322 376Q1359 358 1359 330Q1359 315 1348 304Q1337 293 1318 293Q1285 293 1268 332Q1257 355 1244 365Q1231 375 1205 375Q1153 375 1123 331Q1094 288 1094 216Q1094 133 1134 80Q1174 27 1257 27Q1312 27 1357 58L1359 58Q1362 58 1364 55Q1367 52 1364 50Q1329 18 1293 3Q1257 -12 1213 -12ZM1445 0Q1442 0 1442 6Q1442 12 1445 12Q1481 12 1493 25Q1505 39 1505 81L1505 265Q1505 301 1498 316Q1491 332 1473 332Q1456 332 1430 319L1429 319Q1425 319 1423 324Q1421 330 1425 331L1561 394L1565 395Q1568 395 1571 392Q1575 389 1575 385Q1575 378 1574 345Q1573 312 1573 267L1573 81Q1573 39 1584 25Q1596 12 1633 12Q1636 12 1636 6Q1636 0 1633 0Q1609 0 1594 1L1539 2L1484 1Q1469 0 1445 0ZM1533 506Q1510 506 1496 519Q1483 532 1483 555Q1483 577 1496 589Q1510 602 1533 602Q1555 602 1567 589Q1580 577 1580 555Q1580 532 1567 519Q1555 506 1533 506ZM2081 54L2082 54Q2086 54 2087 49Q2089 45 2085 43L1982 -6Q1978 -8 1973 -8Q1960 -8 1948 8Q1937 25 1933 54L1876 23Q1819 -7 1781 -7Q1750 -7 1732 9Q1715 26 1715 53Q1715 82 1736 98Q1758 114 1816 134L1931 174L1931 255Q1931 319 1915 346Q1900 374 1871 374Q1840 374 1822 351Q1805 329 1801 293Q1797 249 1757 249Q1739 249 1729 258Q1719 267 1719 283Q1719 307 1750 333Q1782 360 1826 377Q1870 395 1905 395Q1947 395 1973 367Q1999 340 1999 285L1999 108Q1999 75 2008 59Q2018 43 2038 43Q2056 43 2081 54ZM1885 45L1931 69L1931 79L1931 160L1843 127Q1819 118 1808 106Q1798 95 1798 78Q1798 57 1810 45Q1822 33 1841 33Q1863 33 1885 45ZM2124 0Q2122 0 2122 6Q2122 12 2124 12Q2161 12 2172 25Q2184 39 2184 81L2185 595Q2185 631 2178 646Q2171 662 2154 662Q2137 662 2111 649L2109 649Q2106 649 2104 654Q2102 659 2105 660L2239 724L2243 725Q2247 725 2251 722Q2255 719 2255 715L2255 81Q2255 39 2266 25Q2278 12 2314 12Q2318 12 2318 6Q2318 0 2314 0Q2291 0 2277 1L2219 2L2163 1Q2149 0 2124 0Z" fill="#000000" style=""></path></g></g><g transform="matrix(1,0,0,1,-299.0934,963.584)"><g transform="matrix(1.024,0,0,-1.024,0,0)"><path d="M341 352Q421 345 470 298Q519 251 519 183Q519 130 491 87Q464 45 416 20Q369 -4 310 -4Q278 -4 240 -1Q226 0 207 1Q188 2 164 2L94 1Q75 0 43 0Q40 0 40 6Q40 12 43 12Q78 12 94 17Q111 23 118 37Q125 51 125 81L125 544Q125 574 118 588Q112 602 95 607Q79 613 44 613Q42 613 42 619Q42 625 44 625L94 624Q138 622 164 622Q191 622 223 625Q234 626 249 627Q265 628 283 628Q369 628 414 592Q459 557 459 497Q459 449 428 410Q397 372 341 352ZM264 611Q240 611 227 606Q215 601 209 586Q204 572 204 542L204 352L248 351Q314 351 347 389Q380 427 380 489Q380 546 351 578Q323 611 264 611ZM294 16Q365 16 399 53Q434 90 434 159Q434 235 392 281Q350 327 273 328Q246 329 204 326L204 81Q204 56 211 42Q218 29 237 22Q256 16 294 16ZM985 54L986 54Q990 54 991 49Q993 45 989 43L886 -6Q882 -8 877 -8Q864 -8 852 8Q841 25 837 54L780 23Q723 -7 685 -7Q654 -7 636 9Q619 26 619 53Q619 82 640 98Q662 114 720 134L835 174L835 255Q835 319 819 346Q804 374 775 374Q744 374 726 351Q709 329 705 293Q701 249 661 249Q643 249 633 258Q623 267 623 283Q623 307 654 333Q686 360 730 377Q774 395 809 395Q851 395 877 367Q903 340 903 285L903 108Q903 75 912 59Q922 43 942 43Q960 43 985 54ZM789 45L835 69L835 79L835 160L747 127Q723 118 712 106Q702 95 702 78Q702 57 714 45Q726 33 745 33Q767 33 789 45ZM1405 54L1406 54Q1410 54 1411 49Q1413 45 1409 43L1306 -6Q1302 -8 1297 -8Q1284 -8 1272 8Q1261 25 1257 54L1200 23Q1143 -7 1105 -7Q1074 -7 1056 9Q1039 26 1039 53Q1039 82 1060 98Q1082 114 1140 134L1255 174L1255 255Q1255 319 1239 346Q1224 374 1195 374Q1164 374 1146 351Q1129 329 1125 293Q1121 249 1081 249Q1063 249 1053 258Q1043 267 1043 283Q1043 307 1074 333Q1106 360 1150 377Q1194 395 1229 395Q1271 395 1297 367Q1323 340 1323 285L1323 108Q1323 75 1332 59Q1342 43 1362 43Q1380 43 1405 54ZM1209 45L1255 69L1255 79L1255 160L1167 127Q1143 118 1132 106Q1122 95 1122 78Q1122 57 1134 45Q1146 33 1165 33Q1187 33 1209 45ZM1723 57L1725 58Q1729 58 1731 53Q1733 49 1730 47Q1693 16 1662 2Q1631 -12 1597 -12Q1555 -12 1526 7Q1498 27 1498 73L1498 304Q1498 339 1488 349Q1479 359 1446 359Q1443 359 1443 367Q1443 374 1446 374Q1490 375 1517 395Q1544 416 1552 452Q1553 455 1560 455Q1567 455 1567 452L1567 375Q1616 376 1703 385Q1706 385 1708 378Q1710 371 1710 362Q1710 353 1707 344Q1704 336 1700 337Q1637 350 1567 352L1567 107Q1567 67 1587 47Q1607 28 1644 28Q1688 28 1723 57ZM2118 59L2119 59Q2122 59 2124 55Q2127 52 2125 49Q2090 17 2053 2Q2017 -12 1975 -12Q1915 -12 1871 14Q1828 41 1805 85Q1783 129 1783 180Q1783 239 1811 288Q1840 338 1890 366Q1941 395 2002 395Q2058 395 2089 368Q2120 342 2120 296Q2120 271 2109 271L2061 271L1864 269Q1860 249 1860 220Q1860 134 1901 81Q1943 28 2016 28Q2074 28 2118 59ZM1967 375Q1930 375 1904 351Q1878 328 1867 285L2039 289Q2038 329 2019 352Q2000 375 1967 375ZM2208 0Q2205 0 2205 6Q2205 12 2208 12Q2244 12 2256 25Q2268 39 2268 81L2268 265Q2268 301 2261 316Q2254 332 2236 332Q2219 332 2193 319L2192 319Q2188 319 2186 324Q2184 330 2188 331L2324 394L2328 395Q2331 395 2334 392Q2338 389 2338 385Q2338 378 2337 345Q2336 312 2336 267L2336 81Q2336 39 2347 25Q2359 12 2396 12Q2399 12 2399 6Q2399 0 2396 0Q2372 0 2357 1L2302 2L2247 1Q2232 0 2208 0ZM2296 506Q2273 506 2259 519Q2246 532 2246 555Q2246 577 2259 589Q2273 602 2296 602Q2318 602 2330 589Q2343 577 2343 555Q2343 532 2330 519Q2318 506 2296 506ZM2929 12Q2932 12 2932 6Q2932 0 2929 0Q2905 0 2890 1L2835 2L2780 1Q2765 0 2741 0Q2738 0 2738 6Q2738 12 2741 12Q2777 12 2788 25Q2800 39 2800 81L2800 237Q2800 295 2779 322Q2758 349 2712 349Q2684 349 2654 335Q2624 321 2600 296L2600 81Q2600 39 2611 25Q2623 12 2660 12Q2663 12 2663 6Q2663 0 2660 0Q2636 0 2621 1L2566 2L2510 1Q2496 0 2472 0Q2469 0 2469 6Q2469 12 2472 12Q2508 12 2519 25Q2531 39 2531 81L2531 276Q2531 309 2523 323Q2516 338 2498 338Q2479 338 2445 324L2443 324Q2440 324 2438 329Q2437 334 2440 335L2564 394Q2566 395 2570 395Q2580 395 2589 372Q2599 350 2600 314Q2673 399 2753 399Q2808 399 2838 366Q2869 334 2869 276L2869 81Q2869 39 2880 25Q2892 12 2929 12Z" fill="#000000" style=""></path></g></g></g></svg>